<svg width="14" height="14" fill="none" xmlns="http://www.w3.org/2000/svg"><g clip-path="url(#a)" fill="#000"><path d="M10.443 2.316L11.518.333c.07-.131.045-.232-.076-.303-.131-.06-.232-.03-.302.091l-1.09 1.998a7.441 7.441 0 00-3.042-.636 7.44 7.44 0 00-3.043.636L2.875.121c-.07-.12-.171-.151-.302-.09-.121.07-.146.17-.076.302l1.075 1.983A6.636 6.636 0 00.97 4.639 5.868 5.868 0 000 7.901h14a5.87 5.87 0 00-.969-3.262 6.664 6.664 0 00-2.588-2.323zM4.23 5.199a.567.567 0 01-.416.174.542.542 0 01-.409-.174.58.58 0 01-.166-.416c0-.161.055-.3.166-.416a.544.544 0 01.409-.174c.161 0 .3.058.416.174a.57.57 0 01.174.416.57.57 0 01-.174.416zm6.38 0a.543.543 0 01-.409.174.567.567 0 01-.416-.174.566.566 0 01-.175-.416c0-.161.058-.3.175-.416a.568.568 0 01.416-.174c.161 0 .297.058.409.174a.582.582 0 01.166.416.58.58 0 01-.166.416zM.06 13.972h13.894V8.445H.06v5.527z"/></g><defs><clipPath id="a"><path fill="#fff" d="M0 0h14v14H0z"/></clipPath></defs></svg>