<svg width="14" height="14" fill="none" xmlns="http://www.w3.org/2000/svg"><g clip-path="url(#a)" fill="#030104"><path d="M1.474 4.483a.03.03 0 00-.023.011C.831 5.367.458 5.958.07 6.675l-.039.08-.011.025c-.034.069-.025.146.021.22.23.358 1.515.777 4.385.777 2.14 0 4.414-.346 4.414-.986 0-.618-2.245-.988-4.414-.988-.72 0-1.433.102-1.639.134a53.43 53.43 0 011.02-1.41.027.027 0 00.006-.016.038.038 0 00-.003-.013c-.006-.009-.016-.015-.025-.015H1.474zM2.31 6.79c0-.133.805-.32 2.116-.32 1.312 0 2.115.187 2.115.32 0 .134-.803.32-2.115.32-1.311 0-2.116-.186-2.116-.32z"/><path d="M3.098 10.012s10.67.434 10.898-3.295C14.18 3.692 6.602 3.98 6.595 3.98c-.007 0-.059.004-.059.048 0 .036.027.048.054.048 2.102 0 5.522.835 5.41 2.643-.09 1.473-2.758 3.197-8.899 3.197-.036 0-.06.026-.06.048 0 .023.013.044.057.048z"/></g><defs><clipPath id="a"><path fill="#fff" d="M0 0h14v14H0z"/></clipPath></defs></svg>