<svg width="14" height="9" fill="none" xmlns="http://www.w3.org/2000/svg"><path fill-rule="evenodd" clip-rule="evenodd" d="M.271.425l2.8-.072A4.273 4.273 0 014.627.58v.102c-.439.382-.754.837-1.041 1.345l-1.701.012.011 4.93 1.006.071 1.029-.012c.614-.006 1.18-1.01 1.234-1.554l.151-1.714c.065-.753.492-1.333 1.152-1.644.415.711.597 1.5.597 2.33 0 2.612-1.585 4.261-4.081 4.166L.27 8.504V.425z" fill="#000"/><path fill-rule="evenodd" clip-rule="evenodd" d="M8.538.335c-.491.37-.877.783-1.152 1.345-.093-.006-.187-.012-.28-.012-.989 0-1.889.884-2.006 1.876l-.257 2.158c-.035.304-.292.615-.485.836-.164.18-.357.215-.597.215h-.029a5.667 5.667 0 01-.462-2.24C3.27 2.055 4.615.107 7.117.107c.491 0 .959.096 1.42.227zM5.48 8.45l.813-.782.368-.538.614.012c.292.651.772 1.093 1.356 1.476a3.986 3.986 0 01-1.292.215c-.649 0-1.257-.15-1.859-.382z" fill="#000"/><path fill-rule="evenodd" clip-rule="evenodd" d="M7.345 5.959l1.561.012c.164 1.021.825 1.302 1.807 1.302.614 0 1.531-.15 1.531-.95 0-.418-.321-.633-.649-.819l.082-1.595c1.246.346 2.216.824 2.216 2.318 0 1.77-1.649 2.516-3.169 2.516-1.087 0-2.496-.323-3.075-1.374-.181-.323-.35-.741-.35-1.118 0-.03.005-.06.011-.09l.035-.202zM13.618 2.845h-1.596c-.134-.795-.783-1.189-1.56-1.189-.533 0-1.404.239-1.433.92a.173.173 0 00.012.096l.315.926c.065.191.076.4.076.604 0 .233-.029.466-.058.699-1.123-.323-1.912-.878-1.912-2.17C7.462.994 8.836.18 10.402.18c1.743 0 3.105.83 3.216 2.665z" fill="#000"/><path fill-rule="evenodd" clip-rule="evenodd" d="M10.724 1.973c.394.759.597 1.583.597 2.462 0 .914-.225 1.768-.608 2.57-.099.005-.197.017-.296.017-.318 0-1.09-.233-1.09-.657 0-.072.01-.144.033-.21l.29-1.057c.06-.209.038-.46.038-.67 0-.818-.34-1.332-.367-1.894-.016-.394.669-.58.91-.58.164 0 .328 0 .493.019z" fill="#000"/></svg>