<svg width="14" height="13" fill="none" xmlns="http://www.w3.org/2000/svg"><g clip-path="url(#a)"><path d="M8.523.17c.52.077 1.052.259 1.329.344.558.17 1.464.7 1.784.955.151.12.47.435.593.594.12.154.35.489.496.695.233.34.507.847.74 1.314.26.52.277.671.356 1.107l.172.768c.016.133.03.62-.257.688a.631.631 0 01-.674-.256c-.172-.267-.149-.646-.344-1.079-.152-.35-.218-.86-.461-1.226l-.19-.322c-.337-.518-.688-.93-.898-1.199a4.346 4.346 0 00-.855-.75 5.816 5.816 0 00-1.143-.5 6.685 6.685 0 00-.89-.217c-.405-.045-.672-.11-1.057-.137C6.75.916 6.521.874 5.904.946c-.233.063-.602.088-.935.215-.27.11-.643.287-1.01.502A7.849 7.849 0 002.57 2.7c-.4.428-.6.657-.875 1.199-.122.268-.359.683-.454.976-.065.297-.19.851-.168 1.12.01.483-.033.582.003.976.002.355.118.601.167.892.041.2.234.894.353 1.055.54 1.166 1.267 1.671 2.077 2.036.228.116.942.307 1.148.362a8.46 8.46 0 001.262.114c.47.01 1.117-.054 1.51-.199.424-.156.915-.378.91-.372.197-.109.498-.286.591-.364.182-.116.29-.16.398-.273.155-.135.249-.213.366-.38.065-.096.169-.24.27-.368.108-.178.17-.366.277-.598.127-.344.107-.327.131-.692a2.074 2.074 0 00-.021-.52c-.057-.329-.037-.618-.112-.936-.102-.43-.186-.753-.315-1.166-.122-.465-.479-.896-.747-1.203-.166-.191-.681-.642-1.396-.923a6.335 6.335 0 00-.74-.183c-.447-.047-.52-.017-.947.015a5.806 5.806 0 00-.615.14c-.367.128-.502.21-.878.44-.175.102-.306.18-.485.347-.143.132-.245.357-.36.488a3.566 3.566 0 00-.453.812c-.128.309-.17.742-.15 1.022 0 .212.058.602.081.687.023.085.08.35.093.403.013.053.15.333.17.373.077.165.225.403.475.645.185.201.542.4.809.476.24.131.643.154.867.154.11-.006.39-.024.537-.059.298-.071.353-.073.66-.206.274-.128.46-.174.652-.315 0 0 .263-.206.383-.357.063-.08.17-.459.151-.693-.009-.322.038-.504-.027-.769-.066-.264-.178-.57-.3-.76-.122-.19-.387-.377-.687-.526-.169-.083-.568-.16-.737-.18a.911.911 0 00-.754.275c-.142.162-.422.498-.31.846.1.314.222.65.694.625.324.067.699-.03.823.027.185.105.257.337.19.499-.048.312-.347.35-.666.373-.285.048-1.01-.092-1.17-.211-.106-.064-.27-.216-.385-.32-.083-.074-.177-.239-.241-.358a1.301 1.301 0 01-.139-.348c-.024-.113-.073-.328-.055-.544.013-.145.052-.207.09-.42.078-.24.174-.423.328-.632.2-.204.456-.447.705-.56.22-.115.604-.158.952-.138.282.027.616.062.837.136.378.135.486.161.796.357.262.162.525.46.673.708.313.64.492 1.353.362 2.312-.011.162-.062.32-.163.535a1.663 1.663 0 01-.502.62 1.975 1.975 0 01-.382.27c-.18.11-.301.167-.49.261a3.678 3.678 0 01-.608.236c-.272.108-.48.112-.822.163-.337.085-1.258.024-1.807-.218a3.436 3.436 0 01-1.114-.773c-.178-.186-.351-.523-.402-.592-.254-.489-.304-.948-.345-1.045-.055-.13-.083-.425-.12-.626-.041-.226-.016-1.171.212-1.778.128-.242.204-.457.29-.57.157-.223.232-.361.365-.519.2-.243.346-.44.54-.58.497-.404.913-.617 1.474-.884.697-.284.907-.225 1.567-.215.297.003.73.096.942.135.394.052.62.147.887.222.285.08.45.207.685.348.192.125.42.295.569.434.383.28.568.576.803.939.043.06.322.655.366.82.02.084.084.322.124.46.052.221.078.417.136.666.052.256.14.74.179 1.193.064.389-.04 1.181-.1 1.424a4.052 4.052 0 01-.842 1.541c-.2.236-.411.42-.656.618-.187.156-.347.247-.636.42a7.368 7.368 0 01-1.242.598c-.224.072-.506.167-.81.23-.59.054-1.196.106-1.857.028-.661-.079-1.324-.265-1.715-.385a9.135 9.135 0 01-.81-.351 4.838 4.838 0 01-.56-.383c-.263-.162-.85-.713-1.228-1.228-.083-.159-.382-.635-.447-.844-.172-.354-.292-.781-.362-.964-.074-.426-.2-.7-.249-1.128.006-.1-.02-.337-.043-.469.033-.292-.011-.568.047-.887.05-.269.119-.381.135-.624.015-.104.15-.417.185-.556.108-.23.135-.419.276-.675.203-.399.415-.858.741-1.26.094-.124.358-.422.448-.526.213-.212.338-.246.58-.46.024-.015.184-.197.35-.26.277-.214.517-.292.78-.486.528-.263.72-.352 1.244-.57.303-.108.725-.168.877-.227.29-.018.583-.11.887-.092.342-.003.686.022 1.03.053.231.014.533.025.943.114z" fill="#000"/></g><defs><clipPath id="a"><path fill="#fff" d="M0 0h14v12.417H0z"/></clipPath></defs></svg>