<svg width="14" height="14" fill="none" xmlns="http://www.w3.org/2000/svg"><path d="M7.927 4.79s-.917 1.128-.87 1.2c.065-.072-.329-1.213-.329-1.213s-.082-.24-.34-1.025h-4.91l-.17.738H2.9c.827 0 1.333.342 1.192.948-.153.66-.875.942-1.645.942H2.16l.37-1.614H1.243L.697 7.124h1.827c1.374 0 2.678-.738 2.913-1.686.04-.174.035-.612-.07-.87 0-.007-.007-.018-.013-.036-.005-.006-.011-.048.012-.054.012-.007.035.018.035.023l.024.055L6.587 7.91l2.96-3.414 1.251-.007h.306c.828 0 1.339.343 1.198.949-.153.66-.88.942-1.65.942h-.294l.376-1.614H9.448L8.9 7.124h1.827c1.374 0 2.69-.738 2.907-1.686.223-.948-.74-1.686-2.126-1.686H8.784c-.722.87-.857 1.038-.857 1.038zM6.628 7.922c-3.476 0-6.295.408-6.295.912s2.819.912 6.295.912c3.483 0 6.302-.408 6.302-.912s-2.82-.912-6.302-.912zm-.223 1.236c-.799 0-1.439-.138-1.439-.306 0-.168.64-.306 1.44-.306.792 0 1.432.138 1.432.306 0 .168-.64.306-1.433.306z" fill="#000"/></svg>