<svg width="14" height="5" fill="none" xmlns="http://www.w3.org/2000/svg"><path d="M7.088 3.825h-.99V1.132h1.405c.75 0 1.117.406 1.117 1.283 0 1.068-.399 1.41-1.532 1.41zM14 0h-1.15l-.031.085-1.293 3.184-1.39-3.184-.031-.064h-1.23l.097.214.239.513C8.828.256 8.253 0 7.503 0H5.029v4.145L3.193.085 3.16.021h-.942l-.032.064L.096 4.786 0 5h2.634V3.889h-1.07l1.07-2.586 1.517 3.612.031.064h3.081c1.613 0 2.443-.855 2.443-2.522 0-.299-.032-.555-.08-.79l1.469 3.248.032.064h.718l.032-.064L13.904.214 14 0z" fill="#000"/></svg>