<svg width="14" height="6" fill="none" xmlns="http://www.w3.org/2000/svg"><path d="M13.562 4.65c-.294-.089-.63-.03-.63-.03s-.953.091-1.45-.014c-.768-.134-.742-.962-.742-.962s-.026-.548.437-1.29c.572-.917 1.202-1.081 1.202-1.081s.158-.06.306.02c.092.531.607.528.607.528s.743.05.707-.85C13.913.23 13.2.13 12.902.06c-.897-.161-1.478.318-1.478.318s-.601.326-1.32 1.459c-.49.703-.55 1.254-.55 1.254s-.058.132-.035.716c-.013.457.157.789.157.789s.26.785 1.08 1.107c.5.207 1.23.203 1.23.203s.705-.01 1.247-.04c.296.024.437-.13.437-.13s.332-.217.3-.595c0 0-.065-.39-.408-.493zM1.535.666C.417 1.358-.12 2.413.023 3.847c.166 1.664 2.32 2.712 4.146 1.656.16-.092.097-.078.157-.13l.365-2.321H2.513L2.346 4.12h.91l-.104.574c-.522.208-1.408.13-1.786-.548-.24-.43-.462-1.388.548-2.269.82-.717 2.242-.847 3.063-.47 0 0 .105-.599.183-1.16-1.578-.547-2.804-.09-3.625.418zM5.735.19L4.83 5.856h2.64c1.086 0 2.676-1.602 1.229-2.912C10.187 1.405 8.71.202 7.922.19c-.634-.01-2.2 0-2.2 0h.013zm.647 3.428h.984c.932 0 .906 1.139-.13 1.139H6.201l.181-1.139zm.363-2.225h.763c.828 0 .66 1.06-.129 1.06h-.815l.18-1.06z" fill="#000"/></svg>