<svg width="15" height="7" fill="none" xmlns="http://www.w3.org/2000/svg"><g clip-path="url(#a)"><path d="M.065 6.881h1.154V1.97H.065V6.88zM.64 1.325a.63.63 0 00.644-.626.631.631 0 00-.644-.63.63.63 0 00-.64.63.63.63 0 00.64.626zM5.06.082c-1.951 0-3.175 1.33-3.175 3.458 0 2.127 1.224 3.453 3.175 3.453 1.947 0 3.17-1.326 3.17-3.453S7.008.082 5.061.082zm0 1.02c1.191 0 1.951.946 1.951 2.438 0 1.488-.76 2.433-1.95 2.433-1.197 0-1.952-.945-1.952-2.433 0-1.492.755-2.438 1.951-2.438zM8.718 5c.05 1.233 1.061 1.993 2.6 1.993 1.617 0 2.637-.798 2.637-2.067 0-.997-.575-1.558-1.933-1.868l-.769-.176c-.82-.195-1.159-.454-1.159-.9 0-.555.51-.926 1.266-.926.764 0 1.288.375 1.344 1h1.14C13.816.88 12.843.083 11.369.083 9.914.082 8.88.884 8.88 2.071c0 .954.584 1.548 1.817 1.83l.867.204c.843.2 1.186.478 1.186.96 0 .556-.56.954-1.367.954-.816 0-1.432-.403-1.506-1.02H8.718z" fill="#000"/></g><defs><clipPath id="a"><path fill="#fff" d="M0 0h14.119v7H0z"/></clipPath></defs></svg>