<svg width="14" height="14" fill="none" xmlns="http://www.w3.org/2000/svg"><g clip-path="url(#a)"><path d="M20.055 27.633v-.002c-.248-.28-.366-.798-.493-1.35s-.268-1.148-.722-1.534l-.003-.002a1.873 1.873 0 00-.556-.335c.63-1.869.383-3.73-.253-5.41-.78-2.064-2.143-3.862-3.184-5.092-1.165-1.47-2.304-2.864-2.281-4.925C12.597 5.84 12.908.008 7.375 0c-.225 0-.46.009-.705.029-6.183.497-4.543 7.03-4.635 9.218-.113 1.6-.437 2.86-1.538 4.424-1.292 1.537-3.112 4.025-3.974 6.615-.407 1.222-.6 2.468-.422 3.647-.056.05-.109.103-.16.157-.38.406-.66.896-.972 1.227-.292.291-.708.402-1.165.566-.458.164-.96.405-1.264.99l-.002.003c-.143.268-.19.557-.19.85 0 .27.04.544.08.809.085.55.17 1.069.057 1.421-.362.99-.408 1.673-.154 2.17.256.497.78.717 1.374.84 1.187.248 2.793.187 4.06.858l.109-.205-.108.206c1.355.708 2.73.96 3.826.71.796-.182 1.44-.655 1.772-1.384.858-.004 1.799-.367 3.306-.45 1.023-.083 2.3.363 3.77.282.039.159.094.312.17.458l.003.004c.57 1.14 1.628 1.66 2.756 1.571 1.13-.089 2.331-.756 3.303-1.911.925-1.122 2.46-1.587 3.48-2.202.508-.307.921-.691.953-1.25.032-.558-.296-1.184-1.05-2.02z" fill="#000"/><path d="M9.8 9.46c-.106-.21-.326-.41-.699-.563h-.002c-.776-.333-1.113-.357-1.546-.639-.705-.453-1.288-.612-1.772-.61-.254.001-.48.046-.684.116-.59.203-.981.627-1.227.859v.001c-.049.046-.11.088-.26.198-.152.11-.38.277-.706.522-.29.218-.385.501-.284.833.1.332.42.715 1.005 1.046h.001l.002.001c.363.214.611.502.896.73.143.115.293.217.473.294.18.078.391.13.655.145.619.036 1.075-.15 1.477-.38.403-.23.744-.511 1.136-.638h.002c.802-.252 1.375-.757 1.554-1.236.09-.24.087-.468-.02-.679z" fill="#fff"/><path d="M7.764 10.645c-.638.333-1.384.737-2.178.737-.793 0-1.42-.367-1.871-.724-.225-.178-.408-.356-.546-.485-.24-.19-.211-.454-.113-.446.165.02.19.237.294.335.14.13.316.301.53.47.426.338.994.667 1.706.667.71 0 1.54-.418 2.046-.701.287-.161.652-.45.95-.668.227-.168.22-.369.407-.347.188.022.05.223-.214.453a5.9 5.9 0 01-1.01.71z" fill="#202020"/><path d="M17.544 24.273a4.292 4.292 0 00-.261 0h-.024c.22-.692-.266-1.203-1.559-1.788-1.34-.59-2.408-.531-2.589.665-.011.063-.02.127-.028.191-.1.035-.2.08-.302.135-.629.344-.973.969-1.164 1.736-.19.766-.246 1.692-.298 2.732v.001c-.032.523-.248 1.231-.466 1.98-2.196 1.568-5.243 2.246-7.831.48a11.502 11.502 0 00-.584-.823 35.888 35.888 0 00-.403-.515c.265 0 .491-.044.674-.126a.853.853 0 00.465-.48c.158-.425 0-1.023-.506-1.707-.505-.684-1.36-1.455-2.617-2.226-.924-.575-1.44-1.279-1.681-2.043-.243-.765-.209-1.592-.022-2.408.358-1.567 1.276-3.09 1.863-4.047.157-.116.056.215-.594 1.422-.582 1.104-1.671 3.65-.18 5.638.04-1.415.377-2.857.944-4.207.826-1.872 2.554-5.12 2.691-7.707a7.146 7.146 0 00.423.277c.317.187.555.46.863.708.31.248.695.462 1.278.496.056.003.111.005.165.005.6 0 1.07-.196 1.46-.42.424-.242.763-.51 1.084-.615h.002c.679-.213 1.218-.588 1.525-1.026.527 2.079 1.754 5.082 2.543 6.548.419.777 1.253 2.43 1.613 4.42.228-.007.48.026.749.095.942-2.442-.799-5.072-1.595-5.805-.322-.312-.337-.451-.177-.445.863.764 1.997 2.3 2.41 4.034.187.79.227 1.621.026 2.442.098.04.198.085.3.133 1.512.736 2.071 1.377 1.803 2.25zM9.872 7.065c.003.412-.068.763-.224 1.121a2.17 2.17 0 01-.314.524 10.32 10.32 0 00-.546-.225c-.124-.047-.22-.078-.32-.113.072-.087.214-.19.267-.318.08-.194.119-.383.126-.609 0-.009.003-.017.003-.027a1.688 1.688 0 00-.087-.591 1.091 1.091 0 00-.272-.46.559.559 0 00-.39-.178h-.02a.572.572 0 00-.38.15c-.13.108-.226.246-.306.44-.08.192-.119.383-.126.61-.002.009-.002.017-.002.026-.002.125.006.239.025.35-.281-.14-.64-.242-.889-.301a3.006 3.006 0 01-.025-.334v-.032c-.004-.41.063-.763.221-1.12.158-.359.354-.616.629-.825a1.39 1.39 0 01.867-.309h.015c.314 0 .582.093.857.292.28.204.482.458.644.813.16.346.236.685.244 1.086 0 .01 0 .02.003.03zM5.132 7.476a2.618 2.618 0 00-.696.315c.017-.12.02-.24.006-.376l-.001-.02a1.63 1.63 0 00-.12-.482.927.927 0 00-.241-.355.395.395 0 00-.298-.112c-.105.01-.193.06-.276.162a.933.933 0 00-.176.39 1.57 1.57 0 00-.033.515l.002.021c.018.181.054.331.119.483a.92.92 0 00.291.393c-.103.08-.172.136-.257.198l-.194.142a1.77 1.77 0 01-.403-.6 2.69 2.69 0 01-.224-.957V7.19c-.02-.355.015-.66.113-.977.097-.316.228-.544.418-.732.19-.188.38-.283.61-.295l.054-.001a.91.91 0 01.588.224c.209.167.367.38.499.681.133.301.203.602.223.957v.003c.01.15.008.29-.004.426z" fill="#fff"/><path d="M6.18 8.325c.026.085.163.071.242.112.07.035.125.114.203.116.074.002.19-.026.2-.1.012-.097-.13-.159-.222-.195-.117-.046-.268-.069-.379-.007-.025.014-.053.047-.044.074zM5.373 8.325c-.027.085-.163.071-.242.112-.07.035-.125.114-.203.116-.074.002-.19-.026-.2-.1-.013-.097.13-.159.221-.195.118-.046.269-.069.38-.007.025.014.052.047.044.074z" fill="#202020"/></g><defs><clipPath id="a"><path fill="#fff" d="M0 0h14v13.922H0z"/></clipPath></defs></svg>