<svg width="12" height="14" fill="none" xmlns="http://www.w3.org/2000/svg"><g clip-path="url(#a)"><path d="M9.828 13.44c-.759.737-1.596.622-2.394.275-.848-.354-1.624-.377-2.52 0-1.116.482-1.708.341-2.38-.274C-1.26 9.534-.7 3.584 3.612 3.36c1.046.055 1.778.578 2.394.621.916-.186 1.792-.72 2.772-.65 1.177.096 2.058.56 2.646 1.396-2.422 1.456-1.848 4.648.377 5.544-.446 1.17-1.017 2.324-1.974 3.178l.001-.01zM5.922 3.319C5.81 1.582 7.216.154 8.834.014c.223 2.002-1.82 3.5-2.912 3.304z" fill="#000"/></g><defs><clipPath id="a"><path fill="#fff" d="M0 0h11.788v14H0z"/></clipPath></defs></svg>