<svg width="14" height="5" fill="none" xmlns="http://www.w3.org/2000/svg"><g clip-path="url(#a)"><path d="M0 4.78L1.215 0H2.34l.585 2.087L3.533 0h1.06l.994 3.522 2.424-.004c.255-.003.27-.53-.019-.53L6.58 2.97c-.606.006-1.245-.65-1.214-1.524.006-.8.705-1.432 1.599-1.432l3.601-.003.917 1.248L12.377 0l1.49.011-1.634 2.297L14 4.798l-1.483-.005-1.028-1.429-.978 1.43-1.513-.002 1.723-2.462-.751-1.093-3.13.004c-.342.003-.33.54.002.53l1.32.02c.557.004 1.342.584 1.322 1.488.009 1.052-.938 1.532-1.394 1.506l-3.453.005-.574-2.151-.574 2.146h-1.09L1.8 2.65l-.526 2.139L0 4.78z" fill="#000"/></g><defs><clipPath id="a"><path fill="#fff" d="M0 0h14v4.798H0z"/></clipPath></defs></svg>