<svg width="14" height="5" fill="none" xmlns="http://www.w3.org/2000/svg"><g clip-path="url(#a)"><path d="M10.17 4.01c.35.176 1.09.32 1.667.32.632 0 .894-.278.894-.626 0-.312-.243-.496-.94-.823-.933-.44-1.617-.788-1.617-1.571 0-.812.822-1.29 2.078-1.29.674 0 .905.055 1.333.156l.003.77c-.42-.103-.793-.278-1.371-.278-.62 0-.885.252-.885.511 0 .377.407.557 1.121.882.994.456 1.547.807 1.547 1.574 0 .79-.692 1.359-2.254 1.359a7.234 7.234 0 01-1.575-.155v-.83zM6.846.701h-.743V4.3h.743c1.141 0 1.86-.624 1.86-1.792C8.707 1.34 7.988.7 6.847.7zm1.996 3.934c-.368.213-1.064.348-1.672.348H4.847V.032H7.17c.608 0 1.304.136 1.672.349.895.517 1.187 1.343 1.187 2.127 0 .784-.29 1.61-1.187 2.127z" fill="#000"/><path d="M3.218 2.274s1.084-.222 1.084-1.085C4.302.345 3.148 0 1.92 0 .812 0 .084.173.084.173V.94c.503-.156.984-.288 1.64-.288.703 0 1.24.268 1.24.647 0 .458-.53.72-1.674.72H.765v.689h.488c1.204 0 1.888.231 1.888.797 0 .504-.611.811-1.374.811-.665 0-1.274-.181-1.767-.356v.826C.237 4.838.866 5 2.037 5c1.298 0 2.427-.534 2.427-1.474 0-.79-.782-1.252-1.246-1.252z" fill="#707070"/></g><defs><clipPath id="a"><path fill="#fff" d="M0 0h14v5H0z"/></clipPath></defs></svg>