<svg width="14" height="6" fill="none" xmlns="http://www.w3.org/2000/svg"><g clip-path="url(#a)" fill="#221E1F"><path d="M8.142 4.769c.536.215 1.667.385 2.55.385.966 0 1.366-.328 1.366-.745 0-.38-.371-.594-1.438-.986-1.427-.524-2.473-.94-2.473-1.882C8.147.575 9.407 0 11.326 0c1.03 0 1.384.063 2.039.183l.005.922c-.643-.12-1.213-.328-2.098-.328-.949 0-1.353.303-1.353.613 0 .448.623.663 1.715 1.054 1.52.544 2.366.96 2.366 1.876 0 .948-1.06 1.63-3.448 1.63-.981 0-1.657-.063-2.41-.19V4.77zM3.058.816H1.92v4.307h1.137c1.745 0 2.846-.751 2.846-2.147S4.803.816 3.058.816zM6.109 5.52c-.562.253-1.626.417-2.555.417H0V.014h3.554c.93 0 1.993.164 2.556.416 1.37.62 1.815 1.611 1.815 2.546 0 .935-.442 1.926-1.816 2.545z"/></g><defs><clipPath id="a"><path fill="#fff" d="M0 0h14v5.95H0z"/></clipPath></defs></svg>