<svg width="14" height="6" fill="none" xmlns="http://www.w3.org/2000/svg"><g clip-path="url(#a)" fill="#000"><path d="M3.651 0H0v5.5h1.134V1.82c0-.232.125-.426.276-.426h1.964c.15 0 .277.194.277.427V5.5h1.132V1.82S4.935 0 3.651 0zM5.21 3.68S5.035 5.5 6.345 5.5h2.82V4.107h-2.62c-.176 0-.327-.235-.327-.465 0-.272.15-.427.328-.427h2.467v-.968H6.545c-.177 0-.328-.193-.328-.426 0-.233.15-.427.328-.427h2.618V0H5.211v3.68zM12.766 2.244H11.13c-.202 0-.352-.114-.352-.385 0-.234.15-.466.302-.466h2.87V0h-3.147c-.63 0-1.133.735-1.133 1.588 0 1.2.554 1.665 1.233 1.665h1.636c.202 0 .353.115.353.386 0 .232-.151.465-.302.465H9.67v1.394h3.222C13.47 5.498 14 4.84 14 3.91c0-1.122-.554-1.666-1.234-1.666z"/></g><defs><clipPath id="a"><path fill="#fff" d="M0 0h14v5.5H0z"/></clipPath></defs></svg>