<svg width="13" height="14" fill="none" xmlns="http://www.w3.org/2000/svg"><g clip-path="url(#a)" fill-rule="evenodd" clip-rule="evenodd" fill="#000"><path d="M9.182 4.8c2.057-.267 3.848 1.35 3.219 3.451-.099.329-.662 1.031-.662 1.031s.86.796.954 1.31c.393 2.143-1.225 3.406-2.867 3.452-1.74.05-3.653-1.128-3.277-3.335.051-.298.25-.583.351-.76.102-.18.582-.667.582-.667s-.638-1.013-.699-1.44c-.22-1.56.71-2.824 2.4-3.043zm-.41 2.576c0 1.125 1.698 1.11 1.698.056 0-1.192-1.697-1.206-1.697-.056zm.878 4.913c1.327 0 1.334-1.99-.023-1.99-1.361 0-1.326 1.99.023 1.99zM9.073.081v.834C6.788.3 6.803 3.995 9.042 3.383v.834c-3.467.868-3.482-4.934.03-4.136z"/><path d="M4.793 2.583l.002-.832c.404 0 .646-.14.646-.433 0-.242-.04-.48-.857-.48l.003 3.46H3.71L3.72 0h.848c1.628.006 1.82.66 1.82 1.291 0 .909-.636 1.292-1.594 1.292zM2.716 4.8c2.057-.267 3.848 1.35 3.218 3.451-.098.329-.661 1.031-.661 1.031s.86.796.954 1.31c.392 2.143-1.225 3.406-2.867 3.452-1.74.05-3.653-1.128-3.277-3.335.051-.298.25-.583.351-.76.102-.18.581-.667.581-.667S.377 8.27.317 7.842c-.22-1.56.71-2.824 2.4-3.043zm-.41 2.576c0 1.125 1.697 1.11 1.697.056 0-1.192-1.696-1.206-1.696-.056zm.878 4.913c1.327 0 1.334-1.99-.023-1.99-1.361 0-1.326 1.99.023 1.99z"/></g><defs><clipPath id="a"><path fill="#fff" d="M0 0h12.753v14H0z"/></clipPath></defs></svg>