<svg width="13" height="15" fill="none" xmlns="http://www.w3.org/2000/svg"><g clip-path="url(#a)" fill-rule="evenodd" clip-rule="evenodd" fill="#000"><path d="M3.568 14.234H1.396l1.758-3.541c-.475 0-1.787-.253-2.266-.684-.62-.56-1.122-1.69-.773-3.034C.5 5.49 2.167 4.372 3.982 4.833c1.297.33 2.055.98 2.278 2.402.103.655.06 1.291-.368 2.254l-2.324 4.745zM1.96 7.867c0 1.54 2.38 1.583 2.38.06 0-1.592-2.38-1.607-2.38-.06zM9.336 4.833c2.091-.27 3.912 1.374 3.272 3.51-.1.334-.673 1.048-.673 1.048s.874.81.97 1.331c.4 2.18-1.245 3.463-2.915 3.51-1.768.05-3.714-1.147-3.331-3.39.051-.304.254-.593.357-.774.103-.182.59-.677.59-.677s-.648-1.03-.71-1.465c-.223-1.585.723-2.87 2.44-3.093zm-.417 2.62c0 1.143 1.726 1.128 1.726.057 0-1.212-1.726-1.227-1.726-.058zm.892 4.995c1.35 0 1.357-2.023-.023-2.023-1.384 0-1.348 2.023.023 2.023zM9.224.083V.93C6.901.305 6.916 4.062 9.193 3.44v.848C5.669 5.17 5.653-.73 9.224.083z"/><path d="M4.873 2.626l.003-.846c.41 0 .656-.142.656-.44 0-.246-.04-.489-.872-.489l.004 3.519H3.77L3.781 0h.862c1.655.006 1.85.67 1.85 1.313 0 .923-.646 1.313-1.62 1.313z"/></g><defs><clipPath id="a"><path fill="#fff" d="M0 0h12.966v14.234H0z"/></clipPath></defs></svg>