<svg width="14" height="13" fill="none" xmlns="http://www.w3.org/2000/svg"><g clip-path="url(#a)" fill-rule="evenodd" clip-rule="evenodd" fill="#000"><path d="M1.085 9.848s.981.03 1.128-.594l.06-1.18 1.138-.425c.903-.397 1.513-1.13 1.513-2.362v-1.24c0-1.01-.982-1.228-1.615-1.02L.251 4.132.22 8.953c.043.934.865.895.865.895zm.937-4.65c0-.068.043-.106.175-.166l.683-.259c.217-.083.285-.054.285.157v1.028c0 .124-.128.226-.272.276l-.658.234c-.152.054-.213.057-.213-.11v-1.16zM8.237 3.584l1.478-.527c.148-.057.119-.376.119-.441 0-.976-.854-1.425-1.461-1.207l-1.427.493c-.84.314-1.7.773-1.886 2.192v2.735c0 1.686 1.316 1.38 1.835 1.19.518-.192 2.265-.83 2.413-.887.407-.154.713-.57.65-1.106-.043-.333-.09-.665-.141-.998-.017-.097-.021-.195-.136-.153l-1.427.527c-.136.051-.221.072-.221.238 0 .165.013.301-.23.382 0 0-.675.233-.756.263-.08.031-.212.044-.212-.195V3.72c0-.115.042-.165.195-.22.153-.057.808-.281.808-.281.126-.04.22-.044.22.093v.145c0 .196.076.163.179.127zM12.682.033l-2.37.825c-.096.032-.122.12-.122.24v5.538c0 .182.057.198.187.153L13.4 5.702c.078-.028.102-.02.102-.119v-.51c0-.176-.024-.245-.187-.186l-2.158.781c-.148.054-.204.084-.204-.119V4.105c0-.148.029-.15.085-.17l1.258-.459c.089-.035.204-.077.204-.186v-.476c0-.096-.054-.164-.272-.085l-1.07.39c-.181.074-.205.034-.205-.136V1.556c0-.064-.022-.094.136-.152l1.682-.63c.129-.047.153-.025.153-.152V.146c0-.139-.036-.183-.243-.113z"/><path d="M8.923 9.112l-2.892 3.173c-.06.076-.026.102.05.063l3.747-2.344c.07-.045.083-.054.14-.038.057.016 1.402.98 1.402.98.096.065.143.036.115-.037l-.701-1.53c-.038-.082-.051-.137-.013-.178L13.6 6.117c.073-.102.032-.153-.09-.089l-3.504 2.179c-.083.05-.127.045-.178.013l-1.3-.88c-.137-.076-.178-.044-.14.103l.586 1.452c.038.08.016.14-.05.217z" stroke="#fff" stroke-width=".102" stroke-miterlimit="2.613"/></g><defs><clipPath id="a"><path fill="#fff" d="M0 0h14v12.138H0z"/></clipPath></defs></svg>