<svg width="12" height="15" fill="none" xmlns="http://www.w3.org/2000/svg"><g clip-path="url(#a)"><path d="M5.872.946a.473.473 0 100-.946.473.473 0 000 .946z" fill="#01015B"/><path d="M0 10.868l5.865-3.161V1.034L0 4.195v6.673z" fill="#000"/><path d="M6.746.921l.041.054L6.85 1c.296.122.607.182.89.236l.026.005c.298.057.567.11.817.217h0l.012.005c.877.321 1.722.79 2.162 1.561.3.618.06 1.392-.41 1.957-.199-.303-.435-.61-.753-.843-1.015-.768-2.295-1.033-3.49-1.105h-.015c-1.147-.002-2.387.146-3.432.772h0-.001c-.527.322-1.148.92-1.047 1.72.03.725.526 1.264 1.018 1.63.01.59.328 1.09.753 1.433 0 .041.003.087.01.134.015.107.05.222.117.376l.01.021.013.02c.365.535.912.812 1.482.943.45.104.924.12 1.363.098a.334.334 0 00-.015.19l.003.014.005.014a.5.5 0 00.248.294.563.563 0 00.314.048c.09-.01.174-.035.239-.056a3.19 3.19 0 00.086-.03l.061-.02.028-.009.026-.014c.444-.255.936-.565 1.246-1.12l.012-.02.007-.023a2.952 2.952 0 01.081-.225.724.724 0 01.02-.015l.005-.004a2.14 2.14 0 00.278-.259c.179-.186.282-.418.365-.603l.025-.057c.095-.21.176-.361.312-.466l.007-.006.007-.006c.39-.35.597-.83.776-1.245l.069-.16c.729-.683 1.44-1.623 1.417-2.756.04-.9-.514-1.67-1.124-2.178h0l-.002-.002C9.867.647 8.604.234 7.372.043a.57.57 0 00-.618.196.546.546 0 00-.008.682zM2.914 5.01h0l.003-.003c.847-.703 2.035-.859 3.177-.834h.001c1.09.018 2.214.276 2.994.993h0l.007.006c.183.157.303.377.388.634a13.88 13.88 0 01-.463.308.971.971 0 00-.126.058l-.02.01c-.025.014-.043.024-.059.031l-.002-.001c-.79-.61-1.783-.822-2.71-.881h-.015c-.988-.006-2.068.169-2.92.803a.918.918 0 01-.395-.492c-.087-.253-.045-.484.14-.632zm3.185 1.453c.492.029.973.094 1.4.264l-.068.013c-.209.04-.45.08-.657.11h-.007l-.045.002-.145.008c-.117.005-.235.01-.289.007a19.318 19.318 0 01-.949-.075 11.21 11.21 0 01-.822-.112c.487-.173 1.032-.219 1.582-.217z" fill="#000" stroke="#fff" stroke-width=".5"/><path d="M5.872.946a.473.473 0 100-.946.473.473 0 000 .946zM.008 7.976l5.864 3.338v3.009L.008 10.985V7.976zM5.872 14.323l5.864-3.338V7.976l-5.864 3.338v3.009z" fill="#000"/></g><defs><clipPath id="a"><path fill="#fff" d="M0 0h11.736v14.323H0z"/></clipPath></defs></svg>