<svg width="14" height="11" fill="none" xmlns="http://www.w3.org/2000/svg"><g clip-path="url(#a)"><path fill-rule="evenodd" clip-rule="evenodd" d="M13.807 8.257c-.271.342-.934.586-.934.586l-4.935 1.772V9.308l3.632-1.294c.412-.148.475-.356.14-.466-.334-.11-.94-.078-1.352.07l-2.42.852V7.114l.14-.048s.699-.247 1.682-.356c.983-.108 2.187.015 3.132.373 1.065.337 1.185.833.915 1.174zM8.408 6.032V2.689c0-.393-.072-.754-.44-.856-.283-.09-.458.171-.458.563v8.371l-2.257-.716V.07c.96.178 2.358.6 3.11.853 1.912.656 2.56 1.473 2.56 3.314 0 1.794-1.108 2.474-2.515 1.795zM1.11 9.172c-1.093-.309-1.275-.95-.777-1.32.46-.341 1.244-.598 1.244-.598l3.237-1.15v1.311l-2.33.834c-.41.147-.474.357-.14.466.335.11.94.078 1.353-.07l1.117-.405v1.174c-.07.013-.15.025-.223.037a7.324 7.324 0 01-3.48-.28z" fill="#000"/></g><defs><clipPath id="a"><path fill="#fff" d="M0 0h14v10.837H0z"/></clipPath></defs></svg>