<svg width="14" height="5" fill="none" xmlns="http://www.w3.org/2000/svg"><g clip-path="url(#a)" fill="#000"><path d="M8.962 0H7.225c-.567 0-1.043.576-1.043 1.325v2.273c0 .464-.133.598-.414.598H4.26c-.01 0-.02.015-.02.033v.658c0 .019.01.035.02.035h1.72c.566 0 1.043-.574 1.043-1.323V1.325c0-.465.132-.6.415-.6h1.524c.013 0 .023-.015.023-.033V.034c0-.018-.01-.034-.023-.034zM3.357 0H.022C.01 0 0 .016 0 .034v.657C0 .71.01.726.022.726h3.123c.28 0 .414.134.414.599 0 .462-.134.696-.415.696H.914C.508 2.02 0 2.684 0 3.433v1.453c0 .02.01.036.022.036H.82c.012 0 .021-.016.021-.036V3.433c0-.462.162-.688.395-.688h2.12c.566 0 1.042-.671 1.042-1.42C4.398.577 3.922 0 3.357 0zM13.737 2.4a.064.064 0 010-.055c.176-.24.263-.601.263-1.02C14 .577 13.524 0 12.957 0H9.623c-.012 0-.02.016-.02.036V.69c0 .019.008.035.02.035h3.122c.28 0 .415.134.415.599 0 .462-.135.695-.415.695h-.004l-3.118.001c-.012 0-.02.015-.02.036v.655c0 .019.008.033.02.033h3.122c.366.008.414.495.414.795v.057c0 .465-.134.601-.414.601H9.623c-.012 0-.02.014-.02.033v.656c0 .019.008.035.02.035h3.334c.567 0 1.043-.62 1.043-1.325V3.54c0-.45-.087-.878-.263-1.14z"/></g><defs><clipPath id="a"><path fill="#fff" d="M0 0h14v4.922H0z"/></clipPath></defs></svg>