<svg width="14" height="5" fill="none" xmlns="http://www.w3.org/2000/svg"><path d="M7.262 3.614V1.31c0-.47.132-.607.414-.607h1.64c.011 0 .021-.017.021-.034V.012A.05.05 0 009.336 0H7.308c-.461.097-.886.63-.886 1.31v2.304c0 .47-.136.606-.414.606H4.27c-.01 0-.02.011-.02.034v.659c0 .019.006.034.015.038H6.25c.544-.023 1.01-.599 1.01-1.337zM.015 4.951h.81c.009-.005.016-.02.016-.038V3.445c0-.47.16-.694.393-.694h2.117c.568 0 1.042-.68 1.042-1.44C4.393.63 3.968.097 3.507 0H.004C.003.004 0 .007 0 .012V.67c0 .023.007.034.02.034H3.14c.282 0 .414.137.414.607s-.132.706-.414.706H.914c-.407 0-.913.675-.913 1.429v1.467c0 .02.005.034.014.038zM9.327 4.42h3.241c.01 0 .018.011.018.023v.47c0 .023.01.035.02.035h.803c.01 0 .02-.012.02-.035v-.459c0-.017.011-.034.021-.034h.499c.014 0 .02-.018.02-.035V3.82c0-.017-.006-.035-.02-.035h-.498c-.01 0-.021-.017-.021-.035V.505c0-.273-.062-.447-.165-.505h-.374a.582.582 0 00-.177.128L9.216 3.71c-.14.145-.188.407-.153.529.027.104.107.18.264.18zm.722-.715l2.488-2.56c.017-.022.052-.017.052.047v2.56c0 .017-.01.034-.02.034h-2.503c-.024 0-.035-.011-.038-.023-.004-.023.003-.04.02-.058z" fill="#000"/></svg>