<svg width="14" height="5" fill="none" xmlns="http://www.w3.org/2000/svg"><g clip-path="url(#a)" fill-rule="evenodd" clip-rule="evenodd" fill="#000"><path d="M11.18 5c-.331-.023-.47-.34-.532-.474C10.585 4.392 8.726 0 8.726 0h.925l1.54 3.58c.08.202.262.252.36.016L13.084 0h.578s-1.8 4.27-1.872 4.415c-.072.146-.277.607-.609.584zM6.801 1.35v2.274c0 .832-.498 1.35-1.326 1.35h-1.68l.001-.814h1.453c.317 0 .507-.124.507-.536V1.35c0-.725.48-1.35 1.303-1.35h1.667v.815h-1.43c-.412-.023-.495.201-.495.535zM3.01 2.858H1.505c-.26 0-.454.148-.454.574v1.55H.03V3.488c0-.838.62-1.503 1.216-1.503H2.77c.472-.023.585-.217.585-.643 0-.327-.13-.573-.585-.528H.029V0h2.98c.834 0 1.363.604 1.363 1.343 0 .839-.53 1.515-1.363 1.515z"/></g><defs><clipPath id="a"><path fill="#fff" d="M0 0h14v5H0z"/></clipPath></defs></svg>