<svg width="14" height="10" fill="none" xmlns="http://www.w3.org/2000/svg"><g clip-path="url(#a)"><path d="M12.308 3.514c.135-.012.233-.013.293 0v.008c.193.122.298.245.307.385-.07.22-.29.465-.64.737-.42.315-.999.639-1.708.972a18.25 18.25 0 01-1.018.425c-.41.158-.348 1.253-.048 1.144.536-.194 1.038-.4 1.504-.614.788-.368 1.428-.727 1.91-1.095.613-.473.964-.92 1.025-1.35.113-.415.014-.785-.3-1.12-.124-.13-1.386.514-1.325.508zM5.205 7.274c-.308.058-.607.109-.901.156l.009-.01a12.49 12.49 0 01-1.56.141h-.009c-.385 0-.683-.026-.876-.096a.477.477 0 00-.394.017.481.481 0 00-.28.29.496.496 0 00.017.402.532.532 0 00.29.28c.28.106.691.158 1.26.158a13.157 13.157 0 001.692-.149h.009c.324-.045.657-.1.998-.167.323-.062.071-1.084-.255-1.022zM5.136 1.63c-.296.098-.585.2-.867.306-.657.254-1.244.508-1.77.78h.009c-.57.289-1.034.57-1.393.867v-.008c-.438.341-.736.674-.894.99v.008c-.245.447-.263.86-.061 1.245.122.376.499.578 1.139.613.368.026.867-.027 1.498-.15.317-.065.679-.154 1.087-.263.245-.066-.047-1.078-.29-1.012-.375.102-.709.183-1.007.242-.517.105-.92.149-1.227.131-.123 0-.21-.008-.245-.008l-.01-.01a.374.374 0 01.045-.297v-.009c.114-.201.315-.42.613-.648a7.203 7.203 0 011.218-.754c.49-.263 1.043-.499 1.656-.736v.01c.174-.066.35-.13.53-.193.444-.154.335-1.225-.03-1.104zM9.501 1.687a14 14 0 01.989-.093 9.08 9.08 0 011.7.01.525.525 0 00.465-.85.493.493 0 00-.351-.193A11.1 11.1 0 0010.42.543c-.445.03-.905.08-1.385.152-.221.032.157 1.031.466.992z" fill="#000"/><path d="M9.501 1.687a14 14 0 01.989-.093 9.08 9.08 0 011.7.01.525.525 0 00.465-.85.493.493 0 00-.351-.193A11.1 11.1 0 0010.42.543c-.445.03-.905.08-1.385.152-.221.032.157 1.031.466.992zM.754 4.849c0 .568.364.527.363.522h-.002l-.01-.01a.374.374 0 01.045-.297v-.009c.114-.201.315-.42.613-.648a7.204 7.204 0 011.218-.754c.49-.263 1.043-.499 1.656-.736v.01c.174-.066.35-.13.53-.193.196-.068.284-.314.29-.557a5.214 5.214 0 00-2.178.167 14.31 14.31 0 00-.78.372h.009c-.178.09-.345.18-.502.268C1.372 3.47.754 4.13.754 4.85z" fill="#000"/><path d="M12.768 1.139a.497.497 0 00-.114-.386.493.493 0 00-.35-.192A11.1 11.1 0 0010.42.543C9.77.587 9.088.674 8.36.806c-.692.122-1.393.29-2.094.482-.7.193-1.366.412-1.997.648-.657.254-1.244.508-1.77.78h.009c-.57.289-1.034.57-1.393.867v-.008c-.438.341-.736.674-.894.99v.008c-.245.447-.263.86-.061 1.245.122.376.492.55 1.132.586.368.026.874 0 1.505-.122.508-.105 1.13-.272 1.875-.482a88.619 88.619 0 002.076-.666l2.086-.683a36.746 36.746 0 011.866-.579c.587-.175 1.051-.28 1.402-.332.245-.035.412-.044.5-.027v.009c.192.123.297.245.306.385-.07.22-.29.465-.64.737-.42.315-.999.64-1.708.972-.692.315-1.463.605-2.313.885h-.01c-.656.21-1.33.394-2.023.56a26.8 26.8 0 01-1.91.369l.009-.01c-.596.088-1.113.132-1.56.141h-.008c-.386 0-.684-.026-.877-.096a.477.477 0 00-.394.017.481.481 0 00-.28.29.496.496 0 00.017.402.532.532 0 00.29.28c.28.106.691.158 1.26.158a13.157 13.157 0 001.692-.149h.009c.63-.087 1.296-.219 1.989-.376h.008A30.75 30.75 0 008.562 7.5c.894-.28 1.709-.596 2.436-.929.788-.368 1.428-.727 1.91-1.095.613-.473.964-.92 1.025-1.35.158-.578-.096-1.068-.771-1.498-.21-.166-.604-.21-1.2-.131h-.009c-.386.061-.903.175-1.542.359a46.4 46.4 0 00-1.91.596l-2.085.683c-.833.272-1.508.49-2.042.649-.71.21-1.297.368-1.787.464-.517.105-.92.149-1.227.132-.123 0-.21-.01-.245-.01l-.009-.008a.374.374 0 01.044-.298v-.009c.114-.201.315-.42.613-.648a7.204 7.204 0 011.218-.754c.49-.262 1.043-.499 1.656-.736v.01a22.165 22.165 0 011.91-.623c.675-.193 1.34-.35 2.006-.464.675-.132 1.323-.21 1.937-.246a9.08 9.08 0 011.7.01.526.526 0 00.578-.464z" fill="#000" stroke="#fff" stroke-width=".044" stroke-linecap="round" stroke-linejoin="round"/><path d="M7.031 8.98a4.468 4.468 0 100-8.936 4.468 4.468 0 000 8.937z" fill="#000"/><path d="M7.031 8.98a4.468 4.468 0 100-8.936 4.468 4.468 0 000 8.937z" fill="url(#b)"/><path d="M7.031 8.98a4.468 4.468 0 100-8.936 4.468 4.468 0 000 8.937z" stroke="#fff" stroke-width=".088" stroke-linecap="round" stroke-linejoin="round"/><path d="M2.545 5.26c-.051.01-1.401.306-1.624.083-.066-.066.142.101.353.376.027.035.01.093-.022.165-.007.016-.015.021-.028.039-.006.008-.008.042-.01.05-.003.028-.017.05-.021.074-.013.077-.058.138-.068.187-.003.018.024.035.022.05-.002.016-.035.02-.034.033.001.013-.037.017-.034.028.001.003 0 .014.006.015.026.006.088.012.097.014.013.002.134.02.306.02.173.002.385.002.57-.018.114-.013.233-.03.344-.045.147-.022.281-.044.376-.059.088-.014.127-.004.14-.002a31.44 31.44 0 001.75-.456 88.619 88.619 0 002.077-.666l2.085-.683c.42-.14.799-.262 1.134-.365.272-.083.516-.155.732-.214.266-.079.507-.143.723-.196.262-.063.487-.108.68-.136.245-.035.411-.044.499-.027v.009c.074.047.396.01.56.256.262.397.39 1.111.498.965.153-.21.245-.415.273-.617.158-.578-.096-1.046-.77-1.476-.21-.166-.605-.21-1.201-.131h-.008a10.84 10.84 0 00-.844.173c-.214.052-.447.092-.699.164a53.81 53.81 0 00-1.91.596l-2.085.683c-.59.193-1.1.359-1.538.496l-2.329.616z" fill="#000" stroke="#fff" stroke-width=".183"/><path d="M11.173 2.646c-.213.052-.51.138-.762.21-.49.14-1.122.333-1.91.596l-2.085.683c-.635.207-1.172.375-1.63.509-.2.058-.34.09-.411.11-.693.206-2.39.7-3.048.628" fill="#000"/><path d="M11.173 2.646c-.213.052-.51.138-.762.21-.49.14-1.122.333-1.91.596l-2.085.683c-.635.207-1.172.375-1.63.509-.2.058-.34.09-.411.11-.693.206-2.39.7-3.048.628" stroke="#333" stroke-width=".03" stroke-linecap="round" stroke-linejoin="round"/><path d="M2.785 6.282A35.437 35.437 0 004.672 5.8a88.619 88.619 0 002.076-.666l2.086-.683a36.736 36.736 0 011.866-.579c.266-.079.572-.155.788-.207" fill="#000"/><path d="M2.785 6.282A35.437 35.437 0 004.672 5.8a88.619 88.619 0 002.076-.666l2.086-.683a36.736 36.736 0 011.866-.579c.266-.079.572-.155.788-.207" stroke="#333" stroke-width=".03" stroke-linecap="round" stroke-linejoin="round"/></g><defs><radialGradient id="b" cx="0" cy="0" r="1" gradientUnits="userSpaceOnUse" gradientTransform="rotate(71.24 .406 4.99) scale(6.31627)"><stop stop-color="#fff"/><stop offset="1" stop-color="#fff" stop-opacity="0"/></radialGradient><clipPath id="a"><path fill="#fff" d="M0 0h14v9.024H0z"/></clipPath></defs></svg>