<svg width="14" height="10" fill="none" xmlns="http://www.w3.org/2000/svg"><g clip-path="url(#a)" fill="#000"><path d="M.073 5.949l.004-.072.01-.071.018-.07.024-.068L.16 5.6l.037-.067.044-.064.05-.064.054-.061.061-.06.067-.06.071-.055.077-.056.082-.052.086-.05.092-.05.095-.046.1-.044.105-.041.108-.039.112-.036.115-.034.119-.03.122-.029.125-.025.128-.022.13-.018.134-.016.136-.012.138-.01.14-.005.142-.002c1.525 0 2.758.626 2.758 1.397 0 .773-1.234 1.396-2.758 1.396-1.523 0-2.757-.623-2.757-1.396zM5.17 8.533l.003-.075.011-.075.019-.073.025-.072.033-.071.039-.07.045-.068.052-.066.058-.066.064-.062.07-.062.075-.06.08-.057.087-.055.091-.054.096-.05.1-.05.106-.045.109-.044.114-.041.117-.038.121-.036.125-.032.129-.03.131-.025.135-.023.137-.02.14-.016.144-.013.144-.01.148-.006.149-.001c1.6 0 2.899.656 2.899 1.466 0 .81-1.3 1.467-2.9 1.467-1.6 0-2.897-.657-2.897-1.467zM6.358 5.319l.13-.009.128-.014.126-.02.124-.027.122-.033.12-.037.117-.045.114-.048.112-.055.108-.059.105-.064.102-.068.099-.074.095-.078.091-.082.087-.086.083-.09.079-.095.074-.097.07-.102.066-.104.06-.108.055-.111.05-.113.045-.117.04-.12.032-.12.029-.125.022-.126.016-.128.009-.13.004-.13a2.62 2.62 0 00-5.237-.033c.034-.002.068-.002.104-.002a2.618 2.618 0 012.618 2.618v.032M11.451 7.905l.127-.008.125-.014.123-.02.12-.026.12-.032.115-.037.115-.042.111-.048.109-.052.105-.058.103-.063.098-.066.096-.072.092-.076.09-.08.084-.084.08-.088.078-.091.072-.096.068-.099.063-.1.058-.106.055-.109.048-.11.044-.113.037-.116.034-.12.026-.12.022-.122.015-.125.01-.127.003-.128a2.548 2.548 0 00-5.095-.031c.033-.002.067-.002.1-.002a2.55 2.55 0 012.55 2.55v.031z"/></g><defs><clipPath id="a"><path fill="#fff" d="M0 0h13.971v10H0z"/></clipPath></defs></svg>