<svg width="14" height="14" fill="none" xmlns="http://www.w3.org/2000/svg"><path d="M3.475.88a3.177 3.177 0 00-2.52 2.316c-.112.43-.12.683-.107 4.02.007 3.064.01 3.136.06 3.372.283 1.276 1.19 2.184 2.477 2.485.168.038.382.045 1.76.053 1.425.01 1.572.008 1.61-.03.039-.039.041-.53.041-6.1 0-4.128-.007-6.073-.025-6.108C6.745.842 6.702.839 5.21.842 3.999.844 3.635.852 3.475.88zm2.303 6.11v5.156l-1.036-.013c-.954-.01-1.056-.015-1.247-.063a2.16 2.16 0 01-1.599-1.665c-.056-.257-.056-6.59-.002-6.842a2.186 2.186 0 011.318-1.576c.336-.135.492-.15 1.581-.152l.985-.003v5.157z" fill="#000"/><path d="M3.693 3.388c-.16.03-.404.153-.534.267-.267.232-.4.56-.38.947.01.201.024.255.105.418.12.247.3.427.547.55.17.083.214.094.436.101.2.008.272 0 .407-.046.552-.185.886-.722.791-1.272a1.17 1.17 0 00-1.372-.965zM8.036.858c-.01.007-.018 2.767-.018 6.132 0 5.551.003 6.114.04 6.13.07.025 2.045.014 2.29-.01a3.178 3.178 0 002.631-2.126c.16-.479.156-.352.156-4.01 0-2.92-.005-3.354-.041-3.54A3.16 3.16 0 0010.503.878c-.179-.03-.454-.038-1.34-.038-.61 0-1.12.008-1.127.018zm2.719 5.544c.397.104.722.407.855.794.084.24.081.59-.003.81-.155.402-.46.684-.852.789a1.253 1.253 0 01-1.5-.85 1.46 1.46 0 01.01-.718c.191-.624.853-.99 1.49-.825z" fill="#000"/></svg>