<svg width="14" height="14" fill="none" xmlns="http://www.w3.org/2000/svg"><path d="M.66 7.167c.314.28.628.544.942.793.415-.63.866-1.207 1.358-1.729a1.245 1.245 0 01-.109-.888 27.999 27.999 0 01-1.59-1.116A6.338 6.338 0 00.625 7h.001-.001c0 .068.001.135.003.202l.031-.035zm.904-3.495c.55.415 1.077.787 1.588 1.12a1.246 1.246 0 011.669-.138 10.022 10.022 0 012.557-1.22 1.385 1.385 0 01.1-.688c-.761-.645-1.663-1.216-2.7-1.72a6.38 6.38 0 00-3.214 2.646zM5.652.77c.82.442 1.552.929 2.193 1.466a1.39 1.39 0 01.786-.34c.067-.329.13-.663.19-1.004a6.366 6.366 0 00-1.82-.265v.001H7V.626c-.463 0-.914.05-1.348.143zm3.768.334c-.053.296-.109.588-.167.875.418.156.74.508.858.943.565-.041 1.154-.05 1.766-.022A6.39 6.39 0 009.42 1.103zm2.942 2.452a14.874 14.874 0 00-2.229-.007 1.393 1.393 0 01-.43.766 8.466 8.466 0 011.043 2.295 1.249 1.249 0 011.324.871c.414.014.84.022 1.284.025.013-.167.02-.335.02-.505h-.001.001c0-1.269-.372-2.451-1.012-3.445zm.912 4.574c-.404-.003-.794-.01-1.174-.023a1.25 1.25 0 01-.974.968c.022.583.002 1.193-.061 1.83.357-.039.72-.09 1.089-.156a6.34 6.34 0 001.12-2.62zm-.76 3.183l.001.006-.007.002A6.978 6.978 0 017 14H7v-.001a6.978 6.978 0 01-4.95-2.05A6.979 6.979 0 01.001 7H0h.001c0-1.934.784-3.684 2.05-4.95A6.976 6.976 0 017 .001V0v.001c1.934 0 3.684.783 4.95 2.05A6.976 6.976 0 0113.999 7H14h-.001a6.97 6.97 0 01-1.485 4.312zm-.98.165c-.183.024-.364.045-.545.063-.022.161-.048.324-.075.489.208-.162.406-.337.592-.523l.028-.029zm-1.346 1.042c.064-.317.118-.628.163-.932a12.644 12.644 0 01-3.29-.246 1.123 1.123 0 01-.935.399c-.2.508-.392 1.002-.57 1.47.465.107.948.164 1.444.164v-.001.001c1.161 0 2.25-.311 3.188-.855zm-5.234.519c.194-.515.387-1.011.583-1.513a1.124 1.124 0 01-.453-.781c-1.133-.45-2.231-1.072-3.317-1.87-.174.294-.34.598-.5.913a6.4 6.4 0 003.687 3.251zM.958 9.033c.1-.183.203-.363.309-.539A21.106 21.106 0 01.71 8.04c.057.34.14.673.248.993zm4.25-3.886a1.242 1.242 0 01.056.843c.686.328 1.36.589 2.043.794a45.01 45.01 0 00.71-2.323 1.402 1.402 0 01-.433-.435 9.57 9.57 0 00-2.376 1.12zM4.944 6.53a1.244 1.244 0 01-1.562.162c-.463.497-.89 1.048-1.283 1.648 1.018.753 2.043 1.343 3.096 1.774A1.126 1.126 0 016.327 9.5c.261-.684.524-1.39.778-2.123a14.768 14.768 0 01-2.161-.846zm4.212-1.909a1.402 1.402 0 01-.548.047 45.42 45.42 0 01-.696 2.282c.598.152 1.208.265 1.845.348.092-.188.23-.349.4-.469a7.822 7.822 0 00-1.001-2.208zm1.342 4.418a1.249 1.249 0 01-.867-1.126 16.457 16.457 0 01-1.921-.368 72.238 72.238 0 01-.805 2.194 1.123 1.123 0 01.412 1.015c.998.199 2.03.266 3.113.2.072-.67.094-1.308.068-1.915z" fill="#000"/></svg>