<svg width="14" height="7" fill="none" xmlns="http://www.w3.org/2000/svg"><g clip-path="url(#a)"><path d="M7.649.367L6.467 5S5.563 1.523 5.416 1.03c-.147-.494-.45-.71-.879-.71-.43 0-.732.216-.88.71-.146.494-1.05 3.972-1.05 3.972L1.424.367H0s1.368 4.945 1.554 5.517c.145.447.487.813.995.813.58 0 .853-.424.978-.813.125-.386 1.01-3.652 1.01-3.652s.886 3.266 1.01 3.652c.125.39.397.813.978.813.508 0 .85-.366.996-.813C7.706 5.312 9.073.367 9.073.367H7.65zm4.884 6.282h1.348V2.287h-1.348V6.65zM12.402.762c0 .42.355.762.79.762.453 0 .808-.334.808-.762C14 .335 13.645 0 13.192 0c-.435 0-.79.342-.79.762zM9.792 6.65h1.349V2.287H9.793V6.65zM9.663.762c0 .42.353.762.79.762.452 0 .808-.334.808-.762 0-.427-.356-.762-.809-.762a.777.777 0 00-.79.762z" fill="#000"/></g><defs><clipPath id="a"><path fill="#fff" d="M0 0h14v6.697H0z"/></clipPath></defs></svg>