<svg width="14" height="13" fill="none" xmlns="http://www.w3.org/2000/svg"><g clip-path="url(#a)"><path d="M2.346 2.496c.06.067.121.134.183.2.364.407.831.873 1.383 1.425l1.526 1.475-.009.552a47.28 47.28 0 01-2.016 2.88l1.197-.004A29.038 29.038 0 006.996 6.91l.003.003V4.655l-.002-.001h-.001c-1.98-.687-3.53-1.4-4.65-2.158z" fill="url(#b)"/><path d="M11.483 2.563C10.63 3.08 9.135 3.777 7 4.653v.002-.001h-.003V6.91c.822.728 1.69 1.435 2.605 2.123h1.143a61.062 61.062 0 01-2.157-2.911l-.016-.53-.003-.003.003-.001c.562-.529 1.537-1.545 2.912-3.025z" fill="url(#c)"/><path d="M8.587 6.122v2.125a48.7 48.7 0 003.592 2.6l.1.064a62.74 62.74 0 01-3.692-4.79z" fill="url(#d)"/><path d="M5.43 6.113l-.001.035c-1.422 2.183-2.677 3.824-3.758 4.927l.192-.118A29.582 29.582 0 005.43 8.348V6.113z" fill="url(#e)"/><path d="M1.721 1.777c.203.245.411.484.625.718 1.12.758 2.671 1.473 4.653 2.16v-.406L1.721 1.777z" fill="url(#f)"/><path d="M12.199 1.787l-5.204 2.46v.408c2.138-.877 3.633-1.575 4.488-2.092.224-.241.456-.493.702-.76l.014-.016z" fill="url(#g)"/><path d="M8.57 5.592l.017.53a62.742 62.742 0 003.693 4.789c.374.24.773.491 1.193.748a30.734 30.734 0 01-2.784-3.118c-.55-.712-1.254-1.695-2.118-2.95z" fill="url(#h)"/><path d="M5.438 5.596c-1.07 1.646-2.103 3.072-3.13 4.285A19.735 19.735 0 01.65 11.65l-.045.058c.375-.215.729-.423 1.062-.629C2.75 9.975 4.005 8.334 5.43 6.148l.009-.552z" fill="url(#i)"/><path d="M10.8 2.62c1.17-.594 1.917-1.171 2.256-1.705l-6.39-.76-6.02.53c.525.722 1.45 1.417 2.773 2.07.5.255 1.095.518 1.799.798.28.11.882.348 1.781.696 1.663-.637 2.927-1.171 3.8-1.63z" fill="url(#j)"/><path d="M10.691 8.544A31.096 31.096 0 0014 12.167L13.813.035c-2.655 2.91-4.402 4.768-5.242 5.557.865 1.256 1.57 2.24 2.12 2.952z" fill="url(#k)"/></g><defs><linearGradient id="b" x1="1.783" y1="8.616" x2="6.43" y2="3.969" gradientUnits="userSpaceOnUse"><stop offset=".17" stop-color="#33332F"/><stop offset=".418" stop-color="#666661"/><stop offset=".578" stop-color="#666"/><stop offset=".713" stop-color="#636361"/><stop offset=".834" stop-color="#5E5E5E"/><stop offset=".944" stop-color="#5C5C5C"/><stop offset="1" stop-color="#595959"/></linearGradient><linearGradient id="c" x1="7.55" y1="3.981" x2="12.177" y2="8.609" gradientUnits="userSpaceOnUse"><stop stop-color="#40403F"/><stop offset=".077" stop-color="#4D4D4D"/><stop offset=".151" stop-color="#565756"/><stop offset=".192" stop-color="#595959"/><stop offset=".197" stop-color="#5C5C5C"/><stop offset=".229" stop-color="#5C5C5C"/><stop offset=".266" stop-color="#5E5E5E"/><stop offset=".309" stop-color="#616161"/><stop offset=".362" stop-color="#636363"/><stop offset=".437" stop-color="#666"/><stop offset=".644" stop-color="#333"/></linearGradient><linearGradient id="d" x1="7.156" y1="7.396" x2="11.948" y2="12.188" gradientUnits="userSpaceOnUse"><stop stop-color="#404040"/><stop offset=".226" stop-color="#595959"/><stop offset=".259" stop-color="#5C5C5C"/><stop offset=".379" stop-color="#5C5C5C"/><stop offset=".507" stop-color="#616161"/><stop offset=".644" stop-color="#616160"/><stop offset=".798" stop-color="#636363"/><stop offset="1" stop-color="#666661"/></linearGradient><linearGradient id="e" x1="6.863" y1="7.427" x2="2.071" y2="12.219" gradientUnits="userSpaceOnUse"><stop stop-color="#383838"/><stop offset=".271" stop-color="#595959"/><stop offset=".316" stop-color="#5C5C5C"/><stop offset=".409" stop-color="#5E5E5E"/><stop offset=".511" stop-color="#616161"/><stop offset=".623" stop-color="#616161"/><stop offset=".756" stop-color="#636363"/><stop offset=".961" stop-color="#666"/></linearGradient><linearGradient id="f" x1="1.554" y1="3.111" x2="5.196" y2="3.111" gradientUnits="userSpaceOnUse"><stop stop-color="#949494"/><stop offset="1" stop-color="#fff" stop-opacity="0"/></linearGradient><linearGradient id="g" x1="7.008" y1="3.221" x2="11.651" y2="3.221" gradientUnits="userSpaceOnUse"><stop stop-color="#E7E7E7" stop-opacity="0"/><stop offset="1" stop-color="#868884"/></linearGradient><linearGradient id="h" x1="8.57" y1="8.73" x2="13.889" y2="8.73" gradientUnits="userSpaceOnUse"><stop stop-color="#fff" stop-opacity="0"/><stop offset="1" stop-color="#949494"/></linearGradient><linearGradient id="i" x1="-.665" y1="8.782" x2="4.395" y2="8.782" gradientUnits="userSpaceOnUse"><stop stop-color="#919291"/><stop offset="1" stop-color="#E7E7E7" stop-opacity="0"/></linearGradient><radialGradient id="j" cx="0" cy="0" r="1" gradientUnits="userSpaceOnUse" gradientTransform="translate(7.032 6.89) scale(11.9089)"><stop/><stop offset=".441" stop-color="#fff" stop-opacity="0"/></radialGradient><radialGradient id="k" cx="0" cy="0" r="1" gradientUnits="userSpaceOnUse" gradientTransform="translate(7.017 6.923) scale(11.7376)"><stop/><stop offset=".52" stop-color="#fff" stop-opacity="0"/></radialGradient><clipPath id="a"><path fill="#fff" d="M0 0h14v12.167H0z"/></clipPath></defs></svg>