<svg width="15" height="15" fill="none" xmlns="http://www.w3.org/2000/svg"><g clip-path="url(#a)"><path d="M2.676 1.514c1.169-.35 2.858.097 4.382 1.114l.018 7.066c-.557-.11-1.141-.346-1.685-.654-.556-.318-1.109-.732-1.684-1.22L5.17 4.06C4.41 3.567 1.447 2.73 1.829 2.3c.386-.423.847-.787.847-.787z" fill="url(#b)"/><path d="M11.361 1.514c-1.169-.35-2.858.097-4.382 1.114l-.018 7.066c.557-.11 1.142-.346 1.685-.654.557-.318 1.109-.732 1.684-1.22L8.867 4.06c.76-.493 3.723-1.33 3.341-1.759-.386-.423-.847-.787-.847-.787z" fill="url(#c)"/><path d="M2.671 12.538l3.977-4.515-1.477-3.959a12.637 12.637 0 00-1.805 1.86C1.967 7.687.747 10.168 1.171 10.899c.423.732 1.5 1.64 1.5 1.64z" fill="url(#d)"/><path d="M11.37 12.534L7.395 8.018 8.87 4.06a12.64 12.64 0 011.805 1.86c1.399 1.762 2.619 4.243 2.195 4.975-.423.732-1.5 1.639-1.5 1.639z" fill="url(#e)"/><path d="M1.53 11.415A7.01 7.01 0 01-.005 7.033c0-1.855.714-3.54 1.888-4.791 0 0 1.224.543 3.286 1.818-4.603 4.768-3.64 7.355-3.64 7.355zM7.01 2.702c0-.005-.004-.005 0 0C9.814.672 11.56 1.689 11.56 1.689A6.948 6.948 0 007.007 0c-1.74 0-3.328.635-4.553 1.69 0 0 1.745-1.046 4.553 1.007l.004.005zm-5.067 9.173a6.969 6.969 0 005.063 2.178 6.954 6.954 0 005.072-2.187s-.741-3.065-5.095-6.287c-3.904 2.886-5.04 6.296-5.04 6.296zm10.55-.46a7.01 7.01 0 001.532-4.382c0-1.855-.718-3.54-1.887-4.791 0 0-1.225.543-3.287 1.818 4.603 4.768 3.641 7.355 3.641 7.355z" fill="url(#f)"/></g><defs><radialGradient id="b" cx="0" cy="0" r="1" gradientUnits="userSpaceOnUse" gradientTransform="matrix(5.0239 0 0 4.80304 3.745 6.69)"><stop offset=".011" stop-color="#fff"/><stop offset=".32" stop-color="#FFFFFE"/><stop offset=".431" stop-color="#FDFDFD"/><stop offset=".51" stop-color="#FBFBFB"/><stop offset=".574" stop-color="#F8F8F8"/><stop offset=".629" stop-color="#F3F3F3"/><stop offset=".678" stop-color="#EEE"/><stop offset=".722" stop-color="#E7E7E7"/><stop offset=".762" stop-color="#DFE0DA"/><stop offset=".798" stop-color="#D7D7D6"/><stop offset=".832" stop-color="#CFCFCF"/><stop offset=".891" stop-color="#C1C1C1"/><stop offset=".962" stop-color="#B4B4B4"/><stop offset="1" stop-color="#AEAEAE"/></radialGradient><radialGradient id="c" cx="0" cy="0" r="1" gradientUnits="userSpaceOnUse" gradientTransform="matrix(-5.0239 0 0 -4.80304 10.292 6.69)"><stop offset=".011" stop-color="#fff"/><stop offset=".32" stop-color="#FFFFFE"/><stop offset=".431" stop-color="#FDFDFD"/><stop offset=".51" stop-color="#FBFBFB"/><stop offset=".574" stop-color="#F8F8F8"/><stop offset=".629" stop-color="#F3F3F0"/><stop offset=".678" stop-color="#EEE"/><stop offset=".722" stop-color="#E6E7DB"/><stop offset=".762" stop-color="#E0E0E0"/><stop offset=".798" stop-color="#D7D7D7"/><stop offset=".832" stop-color="#CFCFCF"/><stop offset=".891" stop-color="#C1C1C1"/><stop offset=".962" stop-color="#B4B4B4"/><stop offset="1" stop-color="#AEAEAE"/></radialGradient><radialGradient id="d" cx="0" cy="0" r="1" gradientUnits="userSpaceOnUse" gradientTransform="matrix(-3.82535 -2.77897 3.31418 -4.56207 6.72 9.202)"><stop offset=".011" stop-color="#fff"/><stop offset=".326" stop-color="#FFFFFE"/><stop offset=".44" stop-color="#FDFDFD"/><stop offset=".52" stop-color="#FBFBFB"/><stop offset=".586" stop-color="#F8F8F8"/><stop offset=".642" stop-color="#F3F3F3"/><stop offset=".692" stop-color="#EEE"/><stop offset=".737" stop-color="#E7E7E7"/><stop offset=".778" stop-color="#E0E0E0"/><stop offset=".815" stop-color="#D7D7D7"/><stop offset=".848" stop-color="#CFCFCF"/><stop offset=".855" stop-color="#CCC"/><stop offset=".896" stop-color="#BFBFBF"/><stop offset=".935" stop-color="#B6B6B6"/><stop offset=".971" stop-color="#B0B0B0"/><stop offset="1" stop-color="#AEAEAE"/></radialGradient><radialGradient id="e" cx="0" cy="0" r="1" gradientUnits="userSpaceOnUse" gradientTransform="matrix(3.82529 -2.77897 3.31417 4.562 7.32 9.196)"><stop offset=".011" stop-color="#fff"/><stop offset=".326" stop-color="#fff"/><stop offset=".44" stop-color="#FDFDFD"/><stop offset=".52" stop-color="#FBFBFB"/><stop offset=".586" stop-color="#F8F8F8"/><stop offset=".642" stop-color="#F3F3F3"/><stop offset=".692" stop-color="#EEE"/><stop offset=".737" stop-color="#E7E7E7"/><stop offset=".778" stop-color="#E0E0DD"/><stop offset=".815" stop-color="#D7D7D7"/><stop offset=".848" stop-color="#CFCFCF"/><stop offset=".855" stop-color="#CCCCCB"/><stop offset=".896" stop-color="#BFBFBF"/><stop offset=".935" stop-color="#B6B6B6"/><stop offset=".971" stop-color="#B0B0B0"/><stop offset="1" stop-color="#AEAEAE"/></radialGradient><radialGradient id="f" cx="0" cy="0" r="1" gradientUnits="userSpaceOnUse" gradientTransform="matrix(12.4122 0 0 12.4514 6.38 5.138)"><stop offset=".028" stop-color="#fff"/><stop offset=".105" stop-color="#E3E2E3"/><stop offset=".259" stop-color="#B3B1B2"/><stop offset=".377" stop-color="#969696"/><stop offset=".444" stop-color="#8C8C8D"/><stop offset=".518" stop-color="#919191"/><stop offset=".606" stop-color="#9F9F9F"/><stop offset=".7" stop-color="#B8B7B7"/><stop offset=".798" stop-color="#DCDCDC"/><stop offset=".809" stop-color="#E1E1E1"/></radialGradient><clipPath id="a"><path fill="#fff" d="M0 0h14.03v14.053H0z"/></clipPath></defs></svg>