<svg width="14" height="14" fill="none" xmlns="http://www.w3.org/2000/svg"><path d="M7.68 13.826a6.829 6.829 0 003.038-1.078c.769-.5.942-.707.942-1.118 0-.826-.908-2.274-2.463-3.923-.882-.937-2.112-2.035-2.244-2.005-.26.058-2.326 2.073-3.1 3.023-1.223 1.5-1.785 2.729-1.5 3.276.218.417 1.566 1.23 2.556 1.543.816.258 1.887.367 2.77.282zm5.018-3.055c.639-.98.961-1.944 1.117-3.34.051-.46.033-.723-.117-1.669-.186-1.177-.857-2.54-1.664-3.379-.343-.356-.374-.366-.793-.224-.507.172-1.05.547-1.891 1.308l-.492.444.27.33c1.245 1.528 2.559 3.697 3.054 5.038.269.729.377 1.46.26 1.765-.077.206-.006.13.257-.273h-.001zm-11.208.166c-.064-.307.016-.873.203-1.443.405-1.236 1.759-3.534 3.002-5.096l.391-.492-.423-.389c-.553-.508-.937-.811-1.351-1.07-.327-.203-.794-.383-.994-.383-.124 0-.56.453-.911.946A7.167 7.167 0 00.258 5.665c-.13.624-.142 1.957-.02 2.58.1.51.31 1.171.513 1.62.154.336.535.99.702 1.202.086.109.086.109.038-.127l-.001-.002zM7.566 1.83c.574-.29 1.459-.603 1.948-.688.17-.03.463-.046.649-.036.403.02.385-.001-.262-.307A6.65 6.65 0 008.306.268C7.62.124 6.333.122 5.659.265c-.728.153-1.585.472-2.068.77l-.144.088.33-.017c.654-.033 1.608.232 2.633.73.309.15.577.27.597.267.02-.004.271-.126.56-.273z" fill="#000"/></svg>