<?xml version="1.0" standalone="no"?>
<!DOCTYPE svg PUBLIC "-//W3C//DTD SVG 20010904//EN"
 "http://www.w3.org/TR/2001/REC-SVG-20010904/DTD/svg10.dtd">
<svg version="1.0" xmlns="http://www.w3.org/2000/svg"
 width="512.000000pt" height="512.000000pt" viewBox="0 0 512.000000 512.000000"
 preserveAspectRatio="xMidYMid meet">
<metadata>
Created by potrace 1.14, written by Peter Selinger 2001-2017
</metadata>
<g transform="translate(0.000000,512.000000) scale(0.100000,-0.100000)"
fill="#000000" stroke="none">
<path d="M0 2560 l0 -2560 2560 0 2560 0 0 2560 0 2560 -2560 0 -2560 0 0
-2560z m2125 1124 c33 -9 85 -28 115 -42 74 -36 176 -139 221 -225 l36 -69 46
65 c126 176 315 277 552 293 341 24 619 -165 707 -483 22 -77 22 -92 26 -895
l3 -818 -290 0 -291 0 0 684 c0 436 -4 713 -11 762 -25 182 -121 267 -299 268
-150 1 -249 -52 -308 -163 -60 -111 -62 -141 -62 -882 l0 -669 -285 0 -284 0
-3 733 c-3 658 -5 737 -21 783 -26 78 -67 128 -134 160 -53 26 -68 29 -163 29
-138 0 -196 -19 -265 -89 -93 -94 -89 -52 -93 -888 l-3 -728 -284 0 -285 0 0
1075 0 1075 273 -2 272 -3 3 -149 3 -149 40 59 c114 165 253 254 438 284 78
12 274 4 346 -16z"/>
</g>
</svg>
